<svg xmlns="http://www.w3.org/2000/svg" version="1.1" xmlns:xlink="http://www.w3.org/1999/xlink" xmlns:svgjs="http://svgjs.com/svgjs" width="512" height="512" x="0" y="0" viewBox="0 0 512 512" style="enable-background:new 0 0 512 512" xml:space="preserve" class=""><g><path xmlns="http://www.w3.org/2000/svg" d="m433.798 106.268-96.423-91.222c-10.256-9.703-23.68-15.046-37.798-15.046h-183.577c-30.327 0-55 24.673-55 55v402c0 30.327 24.673 55 55 55h280c30.327 0 55-24.673 55-55v-310.778c0-15.049-6.27-29.612-17.202-39.954zm-29.137 13.732h-74.661c-2.757 0-5-2.243-5-5v-70.364zm-8.661 362h-280c-13.785 0-25-11.215-25-25v-402c0-13.785 11.215-25 25-25h179v85c0 19.299 15.701 35 35 35h91v307c0 13.785-11.215 25-25 25z" fill="#ffffff" data-original="#000000" class=""></path><path xmlns="http://www.w3.org/2000/svg" d="m363 200h-220c-8.284 0-15 6.716-15 15s6.716 15 15 15h220c8.284 0 15-6.716 15-15s-6.716-15-15-15z" fill="#ffffff" data-original="#000000" class=""></path><path xmlns="http://www.w3.org/2000/svg" d="m363 280h-220c-8.284 0-15 6.716-15 15s6.716 15 15 15h220c8.284 0 15-6.716 15-15s-6.716-15-15-15z" fill="#ffffff" data-original="#000000" class=""></path><path xmlns="http://www.w3.org/2000/svg" d="m215.72 360h-72.72c-8.284 0-15 6.716-15 15s6.716 15 15 15h72.72c8.284 0 15-6.716 15-15s-6.716-15-15-15z" fill="#ffffff" data-original="#000000" class=""></path></g></svg>