<svg xmlns="http://www.w3.org/2000/svg" version="1.1" xmlns:xlink="http://www.w3.org/1999/xlink" xmlns:svgjs="http://svgjs.com/svgjs" width="512" height="512" x="0" y="0" viewBox="0 0 64 64" style="enable-background:new 0 0 512 512" xml:space="preserve" class=""><g><g xmlns="http://www.w3.org/2000/svg"><path d="m59.506 27.903c-.245-6.981-3.072-13.509-8.036-18.473-5.203-5.204-12.118-8.069-19.47-8.069-14.849 0-26.982 11.819-27.505 26.542-2.266 1.007-3.852 3.275-3.852 5.911v7.262c0 3.566 2.901 6.468 6.468 6.468 2.308 0 4.185-1.877 4.185-4.185v-11.829c0-2.167-1.662-3.934-3.775-4.144.78-12.827 11.458-23.025 24.479-23.025 6.552 0 12.713 2.554 17.35 7.191 4.258 4.258 6.75 9.808 7.125 15.835-2.111.212-3.77 1.978-3.77 4.143v11.828c0 2.185 1.688 3.963 3.826 4.148v2.989c0 3.366-2.739 6.104-6.105 6.104h-4.521c-.222-.634-.57-1.22-1.058-1.706-.855-.859-1.995-1.332-3.209-1.332h-4.66c-.669 0-1.311.142-1.899.416-1.604.737-2.64 2.355-2.64 4.122 0 1.214.473 2.354 1.33 3.207.857.859 1.997 1.332 3.209 1.332h4.66c1.932 0 3.635-1.249 4.27-3.039h4.518c5.021 0 9.105-4.084 9.105-9.104v-3.523c2.252-1.013 3.826-3.273 3.826-5.898v-7.262c0-2.634-1.586-4.902-3.851-5.909zm-51.211 3.627v11.828c0 .653-.531 1.185-1.185 1.185-1.912 0-3.468-1.556-3.468-3.468v-7.262c0-1.913 1.556-3.468 3.468-3.468.654 0 1.185.532 1.185 1.185zm34.848 26.891c-.149.706-.783 1.219-1.506 1.219h-4.66c-.41 0-.795-.16-1.089-.454-.29-.289-.45-.675-.45-1.085 0-.599.351-1.146.901-1.399.196-.092.411-.139.638-.139h4.66c.41 0 .795.159 1.088.453.29.289.45.675.45 1.085.001.11-.011.22-.032.32zm17.214-17.346c0 1.912-1.556 3.468-3.468 3.468-.653 0-1.185-.531-1.185-1.185v-11.828c0-.653.531-1.185 1.185-1.185 1.912 0 3.468 1.556 3.468 3.468z" fill="#ffffff" data-original="#000000" class=""></path><path d="m41.713 41.592c3.505 0 6.356-2.852 6.356-6.356v-12.951c0-1.694-.662-3.29-1.864-4.492s-2.797-1.864-4.492-1.864h-19.426c-3.505 0-6.356 2.851-6.356 6.356v12.951c0 3.505 2.851 6.356 6.356 6.356h.119v3.356c0 1.28.763 2.416 1.943 2.895.381.153.777.229 1.169.229.817 0 1.613-.324 2.196-.927l5.583-5.553zm-10.091-2.564-6.042 6.009c-.027.028-.047.049-.104.024-.069-.028-.069-.073-.069-.113v-4.856c0-.828-.671-1.5-1.5-1.5h-1.619c-1.851 0-3.356-1.506-3.356-3.356v-12.951c0-1.851 1.505-3.356 3.356-3.356h19.426c.894 0 1.735.35 2.371.985.636.636.985 1.478.985 2.371v12.951c0 1.851-1.506 3.356-3.356 3.356h-9.034c-.397 0-.777.157-1.058.436z" fill="#ffffff" data-original="#000000" class=""></path><path d="m24.713 26.787c-1.22 0-2.213.994-2.213 2.213s.994 2.213 2.213 2.213c1.221 0 2.215-.994 2.215-2.213s-.993-2.213-2.215-2.213z" fill="#ffffff" data-original="#000000" class=""></path><path d="m31.999 26.787c-1.22 0-2.213.994-2.213 2.213s.994 2.213 2.213 2.213c1.222 0 2.215-.994 2.215-2.213s-.993-2.213-2.215-2.213z" fill="#ffffff" data-original="#000000" class=""></path><path d="m39.285 26.787c-1.22 0-2.213.994-2.213 2.213s.994 2.213 2.213 2.213c1.221 0 2.215-.994 2.215-2.213s-.994-2.213-2.215-2.213z" fill="#ffffff" data-original="#000000" class=""></path></g></g></svg>